<svg width="98" height="94" viewBox="0 0 98 94" fill="none" xmlns="http://www.w3.org/2000/svg">
<path fill-rule="evenodd" clip-rule="evenodd" d="M41.1912 0.827732C40.8269 0.0816827 39.7647 0.0787938 39.3964 0.822851L29.4385 20.9385C29.2926 21.2332 29.0112 21.4373 28.6858 21.4845L6.45209 24.708C5.63226 24.8268 5.30418 25.8338 5.89666 26.4128L14.6691 34.9853C14.8918 35.2029 15.2031 35.3044 15.5113 35.2597L36.5089 32.2188C36.8344 32.1716 37.1159 31.9675 37.2618 31.6727L46.6039 12.8004C46.7414 12.5225 46.7423 12.1966 46.6063 11.918L41.1912 0.827732ZM1.01443 41.3868C0.192403 41.5046 -0.136216 42.515 0.459262 43.0938L16.5452 58.729C16.7817 58.9589 16.8897 59.2906 16.8337 59.6157L13.0516 81.5934C12.9113 82.4082 13.7643 83.0315 14.498 82.6504L21.2197 79.1592L25.423 76.904C25.6944 76.7584 25.8835 76.4959 25.9357 76.1924L29.4936 55.5148C29.5495 55.1897 29.4415 54.8579 29.2049 54.628L14.0588 39.9108C13.8366 39.6949 13.5268 39.5942 13.2201 39.6381L1.01443 41.3868ZM28.763 93.0355C28.0305 93.4195 27.1751 92.7991 27.3126 91.9836L29.3483 79.9078C29.4003 79.5997 29.5933 79.3335 29.8701 79.1884L48.6129 69.3631C48.9036 69.2107 49.2507 69.2107 49.5415 69.3631L68.2859 79.1893C68.5618 79.3339 68.7545 79.5988 68.8072 79.9057L70.8844 92.0036C71.0246 92.82 70.1682 93.4431 69.4345 93.0585L49.5415 82.6298C49.2507 82.4774 48.9036 82.4774 48.6129 82.6298L28.763 93.0355ZM51.56 11.9203C51.4181 12.2013 51.4168 12.5327 51.5565 12.8148L60.8948 31.6732C61.0407 31.9679 61.3221 32.172 61.6474 32.2191L82.6477 35.2637C82.9545 35.3081 83.2645 35.2078 83.4871 34.9921L92.3295 26.4216C92.9258 25.8436 92.5986 24.8328 91.7768 24.7138L69.4676 21.4847C69.1421 21.4376 68.8605 21.2334 68.7146 20.9387L58.8552 1.02213C58.4896 0.283602 57.4377 0.279441 57.0663 1.01505L51.56 11.9203ZM72.7509 76.8937C72.4714 76.7501 72.2756 76.4835 72.2223 76.1739L68.6664 55.5138C68.6105 55.1887 68.7185 54.8569 68.9551 54.627L84.0894 39.9214C84.3145 39.7027 84.6292 39.6023 84.9393 39.6503L97.0173 41.5203C97.8328 41.6466 98.153 42.6505 97.5612 43.2257L81.6114 58.728C81.3749 58.9579 81.2669 59.2896 81.3228 59.6146L85.0739 81.4243C85.2137 82.237 84.365 82.8601 83.6314 82.4832L72.7509 76.8937Z" fill="white"/>
</svg>
