<?xml version="1.0" encoding="UTF-8"?>
<svg width="180px" height="37px" viewBox="0 0 180 37" version="1.1" xmlns="http://www.w3.org/2000/svg" xmlns:xlink="http://www.w3.org/1999/xlink">
    <title>Logo</title>
    <g id="Website" stroke="none" stroke-width="1" fill="none" fill-rule="evenodd">
        <g id="LandingPage---D" transform="translate(-60.000000, -60.000000)" fill="#303A42">
            <g id="Header" transform="translate(60.000000, 54.000000)">
                <g id="Logo" transform="translate(0.000000, 6.000000)">
                    <polygon id="Path" fill-rule="nonzero" points="55.2226746 26.4750852 60.2744611 12.0843695 55.6308998 12.0843695 52.543697 22.1681864 49.405466 12.0843695 44.7619048 12.0843695 49.8136912 26.4750852"></polygon>
                    <path d="M68.7451333,11.9038408 C70.156912,11.9038408 71.4198586,12.2004237 72.5339731,12.7935894 C73.6480876,13.3867551 74.5240708,14.2421172 75.1619226,15.3596758 C75.7997744,16.4772343 76.1187003,17.7839182 76.1187003,19.2797274 C76.1187003,20.7755365 75.7997744,22.0822204 75.1619226,23.1997789 C74.5240708,24.3173375 73.6480876,25.1726996 72.5339731,25.7658653 C71.4198586,26.359031 70.156912,26.6556139 68.7451333,26.6556139 C67.3333546,26.6556139 66.0661556,26.359031 64.9435364,25.7658653 C63.8209172,25.1726996 62.9406817,24.3173375 62.3028299,23.1997789 C61.664978,22.0822204 61.3460521,20.7755365 61.3460521,19.2797274 C61.3460521,17.7839182 61.664978,16.4772343 62.3028299,15.3596758 C62.9406817,14.2421172 63.8209172,13.3867551 64.9435364,12.7935894 C66.0661556,12.2004237 67.3333546,11.9038408 68.7451333,11.9038408 Z M68.7451333,15.7207332 C67.9116736,15.7207332 67.2100366,16.0259126 66.6402223,16.6362715 C66.070408,17.2466304 65.7855008,18.1277824 65.7855008,19.2797274 C65.7855008,20.4316723 66.070408,21.308526 66.6402223,21.9102883 C67.2100366,22.5120506 67.9116736,22.8129317 68.7451333,22.8129317 C69.578593,22.8129317 70.2759776,22.5120506 70.8372872,21.9102883 C71.3985969,21.308526 71.6792517,20.4316723 71.6792517,19.2797274 C71.6792517,18.1277824 71.3985969,17.2466304 70.8372872,16.6362715 C70.2759776,16.0259126 69.578593,15.7207332 68.7451333,15.7207332 Z" id="Combined-Shape" fill-rule="nonzero"></path>
                    <path d="M86.4518999,26.4750852 L86.4518999,22.6839827 L85.0741399,22.6839827 C84.5298397,22.6839827 84.1428763,22.5722268 83.9132496,22.3487151 C83.6836229,22.1252034 83.5688096,21.7297596 83.5688096,21.1623837 L83.5688096,21.1623837 L83.5688096,15.7981026 L86.4263858,15.7981026 L86.4263858,12.0843695 L83.5688096,12.0843695 L83.5688096,8.55116515 L79.2059032,8.55116515 L79.2059032,12.0843695 L77.2923477,12.0843695 L77.2923477,15.7981026 L79.2059032,15.7981026 L79.2059032,21.0850143 C79.2059032,23.0106536 79.6694088,24.3904086 80.5964201,25.2242793 C81.5234314,26.0581499 82.8203968,26.4750852 84.4873162,26.4750852 L84.4873162,26.4750852 L86.4518999,26.4750852 Z" id="Path" fill-rule="nonzero"></path>
                    <path d="M91.0954611,10.3306622 C91.8778927,10.3306622 92.5072398,10.1114488 92.9835025,9.67302201 C93.4597652,9.23459519 93.6978966,8.68871082 93.6978966,8.03536889 C93.6978966,7.36483375 93.4597652,6.81035277 92.9835025,6.37192595 C92.5072398,5.93349912 91.8778927,5.71428571 91.0954611,5.71428571 C90.3130296,5.71428571 89.6836824,5.93349912 89.2074197,6.37192595 C88.731157,6.81035277 88.4930257,7.36483375 88.4930257,8.03536889 C88.4930257,8.68871082 88.731157,9.23459519 89.2074197,9.67302201 C89.6836824,10.1114488 90.3130296,10.3306622 91.0954611,10.3306622 Z" id="Path" fill-rule="nonzero"></path>
                    <polygon id="Path" fill-rule="nonzero" points="93.2641573 26.4750852 93.2641573 12.0843695 88.9012509 12.0843695 88.9012509 26.4750852"></polygon>
                    <path d="M100.637724,26.4750852 L100.637724,18.8413005 C100.637724,17.7925148 100.897117,16.984434 101.415904,16.4170581 C101.93469,15.8496822 102.636327,15.5659943 103.520815,15.5659943 C104.354274,15.5659943 105.021893,15.8367873 105.523669,16.3783734 C106.025446,16.9199595 106.276334,17.6721624 106.276334,18.634982 L106.276334,18.634982 L106.276334,26.4750852 L110.639241,26.4750852 L110.639241,18.1191858 C110.639241,16.1935464 110.158726,14.680544 109.197696,13.5801787 C108.236666,12.4798133 106.9397,11.9296307 105.3068,11.9296307 C104.218199,11.9296307 103.269926,12.1789322 102.461981,12.6775352 C101.654035,13.1761383 101.04595,13.85527 100.637724,14.7149305 L100.637724,14.7149305 L100.637724,12.0843695 L96.2748179,12.0843695 L96.2748179,26.4750852 L100.637724,26.4750852 Z" id="Path" fill-rule="nonzero"></path>
                    <path d="M118.931315,11.9038408 C120.019915,11.9038408 120.955431,12.1531424 121.737863,12.6517454 C122.520294,13.1503485 123.098613,13.8294802 123.47282,14.6891406 L123.47282,14.6891406 L123.47282,12.0843695 L127.810212,12.0843695 L127.810212,26.3977158 L127.802558,26.7960394 C127.756632,27.9790181 127.504043,29.0540665 127.04479,30.0211845 C126.534508,31.09576 125.752077,31.9511222 124.697495,32.5872709 C123.642913,33.2234196 122.333191,33.541494 120.768328,33.541494 C118.625146,33.541494 116.911451,33.029996 115.627242,32.0070001 C114.343034,30.9840042 113.573359,29.5956526 113.318219,27.8419453 L113.318219,27.8419453 L117.630097,27.8419453 L117.681913,28.0320258 C117.837307,28.5261713 118.130456,28.9184312 118.561361,29.2088054 C119.046128,29.5354763 119.679727,29.6988118 120.462159,29.6988118 C121.363656,29.6988118 122.090807,29.4366154 122.643612,28.9122225 C123.196417,28.3878297 123.47282,27.5496607 123.47282,26.3977158 L123.47282,26.3977158 L123.47282,23.8703141 L123.354434,24.1227964 C122.980908,24.8639956 122.442051,25.4589666 121.737863,25.9077093 C120.955431,26.4063124 120.019915,26.6556139 118.931315,26.6556139 C117.757667,26.6556139 116.707338,26.359031 115.780327,25.7658653 C114.853315,25.1726996 114.121912,24.3173375 113.586116,23.1997789 C113.050321,22.0822204 112.782423,20.7755365 112.782423,19.2797274 C112.782423,17.766725 113.050321,16.4557428 113.586116,15.3467809 C114.121912,14.2378189 114.853315,13.3867551 115.780327,12.7935894 C116.707338,12.2004237 117.757667,11.9038408 118.931315,11.9038408 Z M120.334589,15.7723128 C119.399073,15.7723128 118.646407,16.0817905 118.076593,16.7007461 C117.506779,17.3197016 117.221872,18.179362 117.221872,19.2797274 C117.221872,20.3800927 117.506779,21.2397532 118.076593,21.8587087 C118.646407,22.4776642 119.399073,22.7871419 120.334589,22.7871419 C121.253095,22.7871419 122.00576,22.4690676 122.592584,21.8329189 C123.179408,21.1967701 123.47282,20.3457063 123.47282,19.2797274 C123.47282,18.1965552 123.179408,17.3411931 122.592584,16.713641 C122.00576,16.0860889 121.253095,15.7723128 120.334589,15.7723128 Z" id="Combined-Shape" fill-rule="nonzero"></path>
                    <path d="M136.918736,12.1359492 C138.279487,12.1359492 139.431872,12.4798133 140.375893,13.1675417 C141.319914,13.85527 141.979027,14.7751067 142.353234,15.9270517 L142.353234,15.9270517 L142.353234,12.3164778 L144.675014,12.3164778 L144.675014,26.4750852 L142.353234,26.4750852 L142.353234,22.8645114 L142.253746,23.147662 C141.867196,24.1681506 141.241245,24.9936037 140.375893,25.6240214 C139.431872,26.3117497 138.279487,26.6556139 136.918736,26.6556139 C135.677051,26.6556139 134.571441,26.3633293 133.601907,25.7787602 C132.632372,25.1941912 131.871202,24.3560222 131.318397,23.2642535 C130.765592,22.1724847 130.48919,20.8872924 130.48919,19.4086764 C130.48919,17.9300605 130.765592,16.6405698 131.318397,15.5402045 C131.871202,14.4398391 132.632372,13.5973719 133.601907,13.0128028 C134.571441,12.4282337 135.677051,12.1359492 136.918736,12.1359492 Z M137.582102,14.224924 C136.153314,14.224924 135.009433,14.6848423 134.150459,15.604679 C133.291485,16.5245157 132.861998,17.7925148 132.861998,19.4086764 C132.861998,21.024838 133.291485,22.2928372 134.150459,23.2126739 C135.009433,24.1325105 136.153314,24.5924288 137.582102,24.5924288 C138.500609,24.5924288 139.321311,24.3775137 140.04421,23.9476835 C140.767109,23.5178533 141.332671,22.9117927 141.740896,22.1295017 C142.149121,21.3472107 142.353234,20.440269 142.353234,19.4086764 C142.353234,18.3770839 142.149121,17.4658438 141.740896,16.6749562 C141.332671,15.8840687 140.767109,15.278008 140.04421,14.8567744 C139.321311,14.4355408 138.500609,14.224924 137.582102,14.224924 Z" id="Combined-Shape" fill-rule="nonzero"></path>
                    <path d="M156.105319,12.1359492 C157.347004,12.1359492 158.452614,12.4282337 159.422148,13.0128028 C160.391683,13.5973719 161.152853,14.4398391 161.705658,15.5402045 C162.258463,16.6405698 162.534865,17.9300605 162.534865,19.4086764 C162.534865,20.8872924 162.258463,22.1724847 161.705658,23.2642535 C161.152853,24.3560222 160.391683,25.1941912 159.422148,25.7787602 C158.452614,26.3633293 157.347004,26.6556139 156.105319,26.6556139 C154.744568,26.6556139 153.592183,26.3074514 152.648162,25.6111265 C151.704141,24.9148015 151.053532,23.9992631 150.696335,22.8645114 L150.696335,22.8645114 L150.696335,33.1804366 L148.374555,33.1804366 L148.374555,12.3164778 L150.696335,12.3164778 L150.696335,15.9270517 L150.791747,15.6479307 C151.164005,14.6412325 151.78281,13.8187345 152.648162,13.1804366 C153.592183,12.4841116 154.744568,12.1359492 156.105319,12.1359492 Z M155.441953,14.224924 C154.540456,14.224924 153.724005,14.4355408 152.992602,14.8567744 C152.261199,15.278008 151.691384,15.8840687 151.283159,16.6749562 C150.874934,17.4658438 150.670821,18.3770839 150.670821,19.4086764 C150.670821,20.440269 150.874934,21.3472107 151.283159,22.1295017 C151.691384,22.9117927 152.261199,23.5178533 152.992602,23.9476835 C153.724005,24.3775137 154.540456,24.5924288 155.441953,24.5924288 C156.88775,24.5924288 158.040136,24.1325105 158.89911,23.2126739 C159.758084,22.2928372 160.18757,21.024838 160.18757,19.4086764 C160.18757,17.7925148 159.758084,16.5245157 158.89911,15.604679 C158.040136,14.6848423 156.88775,14.224924 155.441953,14.224924 Z" id="Combined-Shape" fill-rule="nonzero"></path>
                    <path d="M173.301804,12.1359492 C174.543489,12.1359492 175.649099,12.4282337 176.618633,13.0128028 C177.588168,13.5973719 178.349338,14.4398391 178.902143,15.5402045 C179.454948,16.6405698 179.73135,17.9300605 179.73135,19.4086764 C179.73135,20.8872924 179.454948,22.1724847 178.902143,23.2642535 C178.349338,24.3560222 177.588168,25.1941912 176.618633,25.7787602 C175.649099,26.3633293 174.543489,26.6556139 173.301804,26.6556139 C171.941053,26.6556139 170.788668,26.3074514 169.844647,25.6111265 C168.900626,24.9148015 168.250018,23.9992631 167.892821,22.8645114 L167.892821,22.8645114 L167.892821,33.1804366 L165.57104,33.1804366 L165.57104,12.3164778 L167.892821,12.3164778 L167.892821,15.9270517 L167.988233,15.6479307 C168.36049,14.6412325 168.979295,13.8187345 169.844647,13.1804366 C170.788668,12.4841116 171.941053,12.1359492 173.301804,12.1359492 Z M172.638438,14.224924 C171.736941,14.224924 170.92049,14.4355408 170.189087,14.8567744 C169.457684,15.278008 168.887869,15.8840687 168.479644,16.6749562 C168.071419,17.4658438 167.867306,18.3770839 167.867306,19.4086764 C167.867306,20.440269 168.071419,21.3472107 168.479644,22.1295017 C168.887869,22.9117927 169.457684,23.5178533 170.189087,23.9476835 C170.92049,24.3775137 171.736941,24.5924288 172.638438,24.5924288 C174.084236,24.5924288 175.236621,24.1325105 176.095595,23.2126739 C176.954569,22.2928372 177.384056,21.024838 177.384056,19.4086764 C177.384056,17.7925148 176.954569,16.5245157 176.095595,15.604679 C175.236621,14.6848423 174.084236,14.224924 172.638438,14.224924 Z" id="Combined-Shape" fill-rule="nonzero"></path>
                    <path d="M19.0777145,26.7128109 L26.5622088,30.6363061 L27.515866,36.1904762 L19.0777145,31.7668905 L10.6586107,36.1803478 L11.5932201,30.6363061 L19.0777145,26.7128109 Z M5.60257703,15.45495 L11.6508713,21.3319633 L10.2299095,29.5904205 L8.46481834,30.5374274 L5.22289196,32.2212766 L6.82798203,22.8942715 L1.3872501e-14,16.2576269 L5.60257703,15.45495 Z M32.5510742,15.4571022 L38.0952381,16.3154855 L31.326939,22.8938917 L32.9193306,32.1525299 L27.9262814,29.5875086 L26.5053196,21.3315835 L32.5510742,15.4571022 Z M22.4654196,0.0874841931 L26.6483046,8.53711523 L36.1124947,9.90698349 L32.0527851,13.8418731 L23.6692372,12.6264632 L19.9384186,5.09218774 L22.4654196,0.0874841931 Z M15.7326763,-2.64296521e-13 L18.2177722,5.08952903 L14.4869537,12.6263366 L6.10340577,13.8404804 L2.07544241,9.90432478 L11.5066164,8.53698863 L15.7326763,-2.64296521e-13 Z" id="Combined-Shape"></path>
                </g>
            </g>
        </g>
    </g>
</svg>