<svg width="39" height="37" viewBox="0 0 39 37" fill="none" xmlns="http://www.w3.org/2000/svg">
<path fill-rule="evenodd" clip-rule="evenodd" d="M15.7327 0L11.5066 8.53699L2.07544 9.90432L6.10341 13.8405L14.487 12.6263L18.2178 5.08953L15.7327 0ZM0 16.2576L6.82798 22.8943L5.22289 32.2213L8.46482 30.5374L10.2299 29.5904L11.6509 21.332L5.60258 15.455L0 16.2576ZM10.6586 36.1803L11.5932 30.6363L19.0777 26.7128L26.5622 30.6363L27.5159 36.1905L19.0777 31.7669L10.6586 36.1803ZM19.9384 5.09219L23.6692 12.6265L32.0528 13.8419L36.1125 9.90698L26.6483 8.53712L22.4654 0.0874842L19.9384 5.09219ZM27.9263 29.5875L26.5053 21.3316L32.5511 15.4571L38.0952 16.3155L31.3269 22.8939L32.9193 32.1525L27.9263 29.5875Z" fill="#303A42"/>
</svg>
