<?xml version="1.0" encoding="UTF-8"?>
<svg width="39px" height="37px" viewBox="0 0 39 37" version="1.1" xmlns="http://www.w3.org/2000/svg" xmlns:xlink="http://www.w3.org/1999/xlink">
    <title>Star</title>
    <g id="Website" stroke="none" stroke-width="1" fill="none" fill-rule="evenodd">
        <g id="Product---D" transform="translate(-60.000000, -60.000000)" fill="#FFFFFF">
            <g id="Header" transform="translate(60.000000, 54.000000)">
                <g id="text_horizontal_black_140px" transform="translate(0.000000, 6.000000)">
                    <path d="M19.0777145,26.7128109 L26.5622088,30.6363061 L27.515866,36.1904762 L19.0777145,31.7668905 L10.6586107,36.1803478 L11.5932201,30.6363061 L19.0777145,26.7128109 Z M5.60257703,15.45495 L11.6508713,21.3319633 L10.2299095,29.5904205 L8.46481834,30.5374274 L5.22289196,32.2212766 L6.82798203,22.8942715 L1.3872501e-14,16.2576269 L5.60257703,15.45495 Z M32.5510742,15.4571022 L38.0952381,16.3154855 L31.326939,22.8938917 L32.9193306,32.1525299 L27.9262814,29.5875086 L26.5053196,21.3315835 L32.5510742,15.4571022 Z M22.4654196,0.0874841931 L26.6483046,8.53711523 L36.1124947,9.90698349 L32.0527851,13.8418731 L23.6692372,12.6264632 L19.9384186,5.09218774 L22.4654196,0.0874841931 Z M15.7326763,-2.64296521e-13 L18.2177722,5.08952903 L14.4869537,12.6263366 L6.10340577,13.8404804 L2.07544241,9.90432478 L11.5066164,8.53698863 L15.7326763,-2.64296521e-13 Z" id="Star"></path>
                </g>
            </g>
        </g>
    </g>
</svg>