<svg width="136" height="29" viewBox="0 0 136 29" fill="none" xmlns="http://www.w3.org/2000/svg">
<g id="Logo">
<path id="Path" d="M11.2225 21.4751L16.2743 7.08437H11.6307L8.54351 17.1682L5.40528 7.08437H0.761719L5.81351 21.4751H11.2225Z" fill="#303A42"/>
<path id="Combined Shape" fill-rule="evenodd" clip-rule="evenodd" d="M28.5336 20.7659C27.4195 21.359 26.1566 21.6556 24.7448 21.6556C23.333 21.6556 22.0658 21.359 20.9432 20.7659C19.8206 20.1727 18.9403 19.3173 18.3025 18.1998C17.6646 17.0822 17.3457 15.7755 17.3457 14.2797C17.3457 12.7839 17.6646 11.4772 18.3025 10.3597C18.9403 9.24212 19.8206 8.38675 20.9432 7.79359C22.0658 7.20042 23.333 6.90384 24.7448 6.90384C26.1566 6.90384 27.4195 7.20042 28.5336 7.79359C29.6477 8.38675 30.5237 9.24212 31.1616 10.3597C31.7994 11.4772 32.1184 12.7839 32.1184 14.2797C32.1184 15.7755 31.7994 17.0822 31.1616 18.1998C30.5237 19.3173 29.6477 20.1727 28.5336 20.7659ZM22.6399 16.9103C23.2097 17.512 23.9113 17.8129 24.7448 17.8129C25.5782 17.8129 26.2756 17.512 26.8369 16.9103C27.3982 16.3085 27.6789 15.4317 27.6789 14.2797C27.6789 13.1278 27.3982 12.2466 26.8369 11.6363C26.2756 11.0259 25.5782 10.7207 24.7448 10.7207C23.9113 10.7207 23.2097 11.0259 22.6399 11.6363C22.0701 12.2466 21.7852 13.1278 21.7852 14.2797C21.7852 15.4317 22.0701 16.3085 22.6399 16.9103Z" fill="#303A42"/>
<path id="Path_2" d="M42.4515 21.4751V17.684H41.0738C40.5295 17.684 40.1425 17.5722 39.9129 17.3487C39.6833 17.1252 39.5685 16.7298 39.5685 16.1624V16.1624V10.7981H42.426V7.08437H39.5685V3.55116H35.2055V7.08437H33.292V10.7981H35.2055V16.085C35.2055 18.0107 35.6691 19.3904 36.5961 20.2243C37.5231 21.0581 38.82 21.4751 40.487 21.4751V21.4751H42.4515Z" fill="#303A42"/>
<path id="Path_3" d="M47.0956 5.33066C47.878 5.33066 48.5074 5.11144 48.9836 4.67302C49.4599 4.23459 49.698 3.6887 49.698 3.03536C49.698 2.36483 49.4599 1.81035 48.9836 1.37192C48.5074 0.933493 47.878 0.714279 47.0956 0.714279C46.3132 0.714279 45.6838 0.933493 45.2076 1.37192C44.7313 1.81035 44.4932 2.36483 44.4932 3.03536C44.4932 3.6887 44.7313 4.23459 45.2076 4.67302C45.6838 5.11144 46.3132 5.33066 47.0956 5.33066Z" fill="#303A42"/>
<path id="Path_4" d="M49.2643 21.4751V7.08437H44.9014V21.4751H49.2643Z" fill="#303A42"/>
<path id="Path_5" d="M56.6373 21.4751V13.8413C56.6373 12.7925 56.8967 11.9844 57.4155 11.4171C57.9343 10.8497 58.6359 10.566 59.5204 10.566C60.3539 10.566 61.0215 10.8368 61.5233 11.3784C62.025 11.92 62.2759 12.6722 62.2759 13.635V13.635V21.4751H66.6388V13.1192C66.6388 11.1935 66.1583 9.68054 65.1973 8.58017C64.2363 7.47981 62.9393 6.92963 61.3064 6.92963C60.2178 6.92963 59.2695 7.17893 58.4616 7.67753C57.6536 8.17613 57.0455 8.85527 56.6373 9.71493V9.71493V7.08437H52.2744V21.4751H56.6373Z" fill="#303A42"/>
<path id="Combined Shape_2" fill-rule="evenodd" clip-rule="evenodd" d="M80.6973 27.5873C79.6427 28.2234 78.333 28.5415 76.7681 28.5415C74.6249 28.5415 72.9113 28.03 71.627 27.007C70.3428 25.984 69.5732 24.5957 69.318 22.8419H73.6299C73.766 23.4265 74.0764 23.8821 74.5612 24.2088C75.0459 24.5355 75.6795 24.6988 76.462 24.6988C77.3635 24.6988 78.0906 24.4366 78.6434 23.9122C79.1962 23.3878 79.4726 22.5497 79.4726 21.3977V18.8703C79.0984 19.73 78.5201 20.4091 77.7377 20.9077C76.9552 21.4063 76.0197 21.6556 74.9311 21.6556C73.7575 21.6556 72.7071 21.359 71.7801 20.7659C70.8531 20.1727 70.1217 19.3173 69.5859 18.1998C69.0501 17.0822 68.7822 15.7755 68.7822 14.2797C68.7822 12.7667 69.0501 11.4557 69.5859 10.3468C70.1217 9.23782 70.8531 8.38675 71.7801 7.79359C72.7071 7.20042 73.7575 6.90384 74.9311 6.90384C76.0197 6.90384 76.9552 7.15314 77.7377 7.65174C78.5201 8.15035 79.0984 8.82948 79.4726 9.68914V7.08437H83.81V21.3977C83.81 22.7388 83.5549 23.9466 83.0446 25.0212C82.5343 26.0958 81.7519 26.9511 80.6973 27.5873ZM74.0764 16.8587C74.6462 17.4777 75.3989 17.7871 76.3344 17.7871C77.2529 17.7871 78.0056 17.4691 78.5924 16.8329C79.1792 16.1968 79.4726 15.3457 79.4726 14.2797C79.4726 13.1966 79.1792 12.3412 78.5924 11.7136C78.0056 11.0861 77.2529 10.7723 76.3344 10.7723C75.3989 10.7723 74.6462 11.0818 74.0764 11.7007C73.5066 12.3197 73.2217 13.1794 73.2217 14.2797C73.2217 15.3801 73.5066 16.2398 74.0764 16.8587Z" fill="#303A42"/>
<path id="Combined Shape_3" fill-rule="evenodd" clip-rule="evenodd" d="M96.376 20.624C95.4319 21.3117 94.2796 21.6556 92.9188 21.6556C91.6771 21.6556 90.5715 21.3633 89.602 20.7788C88.6324 20.1942 87.8713 19.356 87.3185 18.2642C86.7657 17.1725 86.4893 15.8873 86.4893 14.4087C86.4893 12.9301 86.7657 11.6406 87.3185 10.5402C87.8713 9.43983 88.6324 8.59736 89.602 8.01279C90.5715 7.42823 91.6771 7.13594 92.9188 7.13594C94.2796 7.13594 95.4319 7.4798 96.376 8.16753C97.32 8.85526 97.9791 9.7751 98.3533 10.927V7.31647H100.675V21.4751H98.3533V17.8645C97.9791 19.0164 97.32 19.9363 96.376 20.624ZM90.1505 18.2127C91.0095 19.1325 92.1534 19.5924 93.5822 19.5924C94.5007 19.5924 95.3214 19.3775 96.0443 18.9477C96.7672 18.5178 97.3327 17.9118 97.741 17.1295C98.1492 16.3472 98.3533 15.4403 98.3533 14.4087C98.3533 13.3771 98.1492 12.4658 97.741 11.6749C97.3327 10.8841 96.7672 10.278 96.0443 9.85677C95.3214 9.43553 94.5007 9.22492 93.5822 9.22492C92.1534 9.22492 91.0095 9.68483 90.1505 10.6047C89.2916 11.5245 88.8621 12.7925 88.8621 14.4087C88.8621 16.0248 89.2916 17.2928 90.1505 18.2127Z" fill="#303A42"/>
<path id="Combined Shape_4" fill-rule="evenodd" clip-rule="evenodd" d="M106.696 17.8645V28.1804H104.374V7.31647H106.696V10.927C107.053 9.79229 107.704 8.87675 108.648 8.18043C109.592 7.4841 110.744 7.13594 112.105 7.13594C113.346 7.13594 114.452 7.42823 115.422 8.01279C116.391 8.59736 117.152 9.43983 117.705 10.5402C118.258 11.6406 118.534 12.9301 118.534 14.4087C118.534 15.8873 118.258 17.1725 117.705 18.2642C117.152 19.356 116.391 20.1942 115.422 20.7788C114.452 21.3633 113.346 21.6556 112.105 21.6556C110.744 21.6556 109.592 21.3074 108.648 20.6111C107.704 19.9148 107.053 18.9993 106.696 17.8645ZM108.992 18.9477C109.723 19.3775 110.54 19.5924 111.441 19.5924C112.887 19.5924 114.04 19.1325 114.899 18.2127C115.758 17.2928 116.187 16.0248 116.187 14.4087C116.187 12.7925 115.758 11.5245 114.899 10.6047C114.04 9.68483 112.887 9.22492 111.441 9.22492C110.54 9.22492 109.723 9.43553 108.992 9.85677C108.261 10.278 107.691 10.8841 107.283 11.6749C106.874 12.4658 106.67 13.3771 106.67 14.4087C106.67 15.4403 106.874 16.3472 107.283 17.1295C107.691 17.9118 108.261 18.5178 108.992 18.9477Z" fill="#303A42"/>
<path id="Combined Shape_5" fill-rule="evenodd" clip-rule="evenodd" d="M123.893 17.8645V28.1804H121.571V7.31647H123.893V10.927C124.25 9.79229 124.901 8.87675 125.845 8.18043C126.789 7.4841 127.941 7.13594 129.302 7.13594C130.544 7.13594 131.649 7.42823 132.619 8.01279C133.588 8.59736 134.35 9.43983 134.902 10.5402C135.455 11.6406 135.732 12.9301 135.732 14.4087C135.732 15.8873 135.455 17.1725 134.902 18.2642C134.35 19.356 133.588 20.1942 132.619 20.7788C131.649 21.3633 130.544 21.6556 129.302 21.6556C127.941 21.6556 126.789 21.3074 125.845 20.6111C124.901 19.9148 124.25 18.9993 123.893 17.8645ZM126.189 18.9477C126.921 19.3775 127.737 19.5924 128.639 19.5924C130.084 19.5924 131.237 19.1325 132.096 18.2127C132.955 17.2928 133.384 16.0248 133.384 14.4087C133.384 12.7925 132.955 11.5245 132.096 10.6047C131.237 9.68483 130.084 9.22492 128.639 9.22492C127.737 9.22492 126.921 9.43553 126.189 9.85677C125.458 10.278 124.888 10.8841 124.48 11.6749C124.072 12.4658 123.868 13.3771 123.868 14.4087C123.868 15.4403 124.072 16.3472 124.48 17.1295C124.888 17.9118 125.458 18.5178 126.189 18.9477Z" fill="#303A42"/>
</g>
</svg>
