<svg width="627" height="128" viewBox="0 0 627 128" fill="none" xmlns="http://www.w3.org/2000/svg">
<path d="M35.6005 78.08L52.4005 28.52H70.4006L45.8005 95H25.1605L0.560547 28.52H18.6805L35.6005 78.08Z" fill="white"/>
<path d="M110.526 27.68C117.006 27.68 122.806 29.04 127.926 31.76C133.126 34.48 137.206 38.44 140.166 43.64C143.126 48.76 144.606 54.8 144.606 61.76C144.606 68.72 143.126 74.76 140.166 79.88C137.206 85 133.126 88.96 127.926 91.76C122.806 94.48 117.006 95.84 110.526 95.84C104.046 95.84 98.2056 94.48 93.0056 91.76C87.8856 88.96 83.8456 85 80.8856 79.88C77.9256 74.76 76.4455 68.72 76.4455 61.76C76.4455 54.8 77.9256 48.76 80.8856 43.64C83.8456 38.44 87.8856 34.48 93.0056 31.76C98.2056 29.04 104.046 27.68 110.526 27.68ZM110.526 42.32C105.806 42.32 101.806 44 98.5256 47.36C95.2456 50.64 93.6056 55.44 93.6056 61.76C93.6056 68.08 95.2456 72.92 98.5256 76.28C101.806 79.56 105.806 81.2 110.526 81.2C115.246 81.2 119.246 79.56 122.526 76.28C125.806 72.92 127.446 68.08 127.446 61.76C127.446 55.44 125.806 50.64 122.526 47.36C119.246 44 115.246 42.32 110.526 42.32Z" fill="white"/>
<path d="M192.083 80.48V95H183.203C175.763 95 170.043 93.2 166.043 89.6C162.123 86 160.163 80 160.163 71.6V42.8H150.923V28.52H160.163V12.08H177.083V28.52H191.963V42.8H177.083V71.84C177.083 75.04 177.723 77.28 179.003 78.56C180.283 79.84 182.443 80.48 185.483 80.48H192.083Z" fill="white"/>
<path d="M202.339 9.43999C202.339 6.71999 203.299 4.52 205.219 2.84C207.139 1.08 209.659 0.199997 212.779 0.199997C215.899 0.199997 218.419 1.08 220.339 2.84C222.259 4.52 223.219 6.71999 223.219 9.43999C223.219 12.08 222.259 14.28 220.339 16.04C218.419 17.72 215.899 18.56 212.779 18.56C209.659 18.56 207.139 17.72 205.219 16.04C203.299 14.28 202.339 12.08 202.339 9.43999ZM221.179 28.52V95H204.259V28.52H221.179Z" fill="white"/>
<path d="M276.085 27.56C283.765 27.56 289.885 30.08 294.445 35.12C299.005 40.16 301.285 47.24 301.285 56.36V95H284.485V58.28C284.485 53 283.125 48.92 280.405 46.04C277.685 43.08 273.965 41.6 269.245 41.6C264.445 41.6 260.605 43.16 257.725 46.28C254.845 49.4 253.405 53.88 253.405 59.72V95H236.485V28.52H253.405V41.84C255.165 37.36 258.045 33.88 262.045 31.4C266.125 28.84 270.805 27.56 276.085 27.56Z" fill="white"/>
<path d="M342.213 27.68C347.813 27.68 352.613 29 356.613 31.64C360.613 34.28 363.453 37.84 365.133 42.32V28.52H381.933V95.24C381.933 101.4 380.693 106.92 378.213 111.8C375.813 116.76 372.173 120.64 367.293 123.44C362.493 126.24 356.653 127.64 349.773 127.64C340.173 127.64 332.413 125.36 326.493 120.8C320.573 116.24 316.973 110.04 315.693 102.2H332.373C333.333 105.56 335.173 108.16 337.893 110C340.693 111.92 344.253 112.88 348.573 112.88C353.533 112.88 357.533 111.4 360.573 108.44C363.613 105.56 365.133 101.16 365.133 95.24V81.08C363.453 85.56 360.613 89.16 356.613 91.88C352.613 94.52 347.813 95.84 342.213 95.84C336.613 95.84 331.573 94.48 327.093 91.76C322.613 89.04 319.093 85.12 316.533 80C314.053 74.8 312.813 68.72 312.813 61.76C312.813 54.8 314.053 48.76 316.533 43.64C319.093 38.44 322.613 34.48 327.093 31.76C331.573 29.04 336.613 27.68 342.213 27.68ZM347.493 42.44C342.213 42.44 337.973 44.16 334.773 47.6C331.573 51.04 329.973 55.76 329.973 61.76C329.973 67.76 331.573 72.48 334.773 75.92C337.973 79.28 342.213 80.96 347.493 80.96C352.613 80.96 356.813 79.24 360.093 75.8C363.453 72.28 365.133 67.6 365.133 61.76C365.133 55.84 363.453 51.16 360.093 47.72C356.813 44.2 352.613 42.44 347.493 42.44Z" fill="white"/>
<path d="M425.346 28.28C431.746 28.28 437.146 29.88 441.546 33.08C446.026 36.28 449.146 40.56 450.906 45.92V29.12H461.827V95H450.906V78.2C449.146 83.56 446.026 87.84 441.546 91.04C437.146 94.24 431.746 95.84 425.346 95.84C419.506 95.84 414.306 94.48 409.746 91.76C405.186 89.04 401.586 85.16 398.946 80.12C396.386 75 395.106 69 395.106 62.12C395.106 55.24 396.386 49.24 398.946 44.12C401.586 39 405.186 35.08 409.746 32.36C414.306 29.64 419.506 28.28 425.346 28.28ZM428.466 38C421.746 38 416.346 40.16 412.266 44.48C408.266 48.72 406.266 54.6 406.266 62.12C406.266 69.64 408.266 75.56 412.266 79.88C416.346 84.12 421.746 86.24 428.466 86.24C432.786 86.24 436.626 85.24 439.986 83.24C443.426 81.24 446.106 78.44 448.026 74.84C449.946 71.16 450.906 66.92 450.906 62.12C450.906 57.32 449.946 53.08 448.026 49.4C446.106 45.72 443.426 42.92 439.986 41C436.626 39 432.786 38 428.466 38Z" fill="white"/>
<path d="M515.566 28.28C521.406 28.28 526.606 29.64 531.166 32.36C535.726 35.08 539.286 39 541.846 44.12C544.486 49.24 545.806 55.24 545.806 62.12C545.806 69 544.486 75 541.846 80.12C539.286 85.16 535.726 89.04 531.166 91.76C526.606 94.48 521.406 95.84 515.566 95.84C509.166 95.84 503.726 94.24 499.246 91.04C494.846 87.76 491.806 83.48 490.126 78.2V126.2H479.206V29.12H490.126V45.92C491.806 40.64 494.846 36.4 499.246 33.2C503.726 29.92 509.166 28.28 515.566 28.28ZM512.446 38C508.206 38 504.366 39 500.926 41C497.486 42.92 494.806 45.72 492.886 49.4C490.966 53.08 490.006 57.32 490.006 62.12C490.006 66.92 490.966 71.16 492.886 74.84C494.806 78.44 497.486 81.24 500.926 83.24C504.366 85.24 508.206 86.24 512.446 86.24C519.246 86.24 524.646 84.12 528.646 79.88C532.726 75.56 534.766 69.64 534.766 62.12C534.766 54.6 532.726 48.72 528.646 44.48C524.646 40.16 519.246 38 512.446 38Z" fill="white"/>
<path d="M596.425 28.28C602.265 28.28 607.465 29.64 612.025 32.36C616.585 35.08 620.145 39 622.705 44.12C625.345 49.24 626.665 55.24 626.665 62.12C626.665 69 625.345 75 622.705 80.12C620.145 85.16 616.585 89.04 612.025 91.76C607.465 94.48 602.265 95.84 596.425 95.84C590.025 95.84 584.585 94.24 580.105 91.04C575.705 87.76 572.665 83.48 570.985 78.2V126.2H560.065V29.12H570.985V45.92C572.665 40.64 575.705 36.4 580.105 33.2C584.585 29.92 590.025 28.28 596.425 28.28ZM593.305 38C589.065 38 585.225 39 581.785 41C578.345 42.92 575.665 45.72 573.745 49.4C571.825 53.08 570.865 57.32 570.865 62.12C570.865 66.92 571.825 71.16 573.745 74.84C575.665 78.44 578.345 81.24 581.785 83.24C585.225 85.24 589.065 86.24 593.305 86.24C600.105 86.24 605.505 84.12 609.505 79.88C613.585 75.56 615.625 69.64 615.625 62.12C615.625 54.6 613.585 48.72 609.505 44.48C605.505 40.16 600.105 38 593.305 38Z" fill="white"/>
</svg>
